<?xml version="1.0" encoding="UTF-8"?>
<svg version="1.1" xmlns="http://www.w3.org/2000/svg" width="64" height="64">
<path d="M0 0 C3.3 0 6.6 0 10 0 C11.32 4.95 12.64 9.9 14 15 C15.27499705 10.4386325 15.27499705 10.4386325 16.54272461 5.87524414 C17.88888889 1.11111111 17.88888889 1.11111111 19 0 C21.97 0 24.94 0 28 0 C28 9.57 28 19.14 28 29 C26.02 29 24.04 29 22 29 C21.67 25.04 21.34 21.08 21 17 C20.01 20.96 19.02 24.92 18 29 C15.69 29 13.38 29 11 29 C10.51891725 27.58398286 10.04021859 26.16715563 9.5625 24.75 C9.29566406 23.96109375 9.02882813 23.1721875 8.75390625 22.359375 C8.0846051 20.2647745 7.53332008 18.13328033 7 16 C6.67 20.29 6.34 24.58 6 29 C4.02 29 2.04 29 0 29 C0 19.43 0 9.86 0 0 Z " fill="#00E5FF" transform="translate(29,17)"/>
<path d="M0 0 C2.31 0 4.62 0 7 0 C7.08736736 3.72901814 7.14051482 7.45777165 7.1875 11.1875 C7.21263672 12.24259766 7.23777344 13.29769531 7.26367188 14.38476562 C7.27333984 15.40634766 7.28300781 16.42792969 7.29296875 17.48046875 C7.3086792 18.41785889 7.32438965 19.35524902 7.34057617 20.32104492 C6.92907749 23.55787288 5.9183649 25.3796095 4 28 C0.27420911 30.48386059 -1.58711402 30.3804212 -6 30 C-8.8125 28.9375 -8.8125 28.9375 -11 27 C-12.3125 23.3125 -12.3125 23.3125 -13 20 C-9.535 19.505 -9.535 19.505 -6 19 C-5.67 20.65 -5.34 22.3 -5 24 C-3.68 24 -2.36 24 -1 24 C-0.67 16.08 -0.34 8.16 0 0 Z " fill="#00E5FF" transform="translate(19,17)"/>
</svg>
